<svg xmlns="http://www.w3.org/2000/svg" viewBox="0 0 651 353"><title>MakerSpaceLogo</title><path d="M805,457H154c0.07-2.16.2-4.32,0.2-6.48q0-160,0-320.07c0-8.82-.11-17.63-0.16-26.45H805c-0.06,2.49-.16,5-0.16,7.48q0,140.56,0,281.12C804.8,414.07,804.93,435.53,805,457ZM507.29,397.81c-4.15,4.72-3.61,7.57,2,10.52-0.46,1.23-1.41,2.51-1.27,3.67,0.19,1.66.78,4.15,1.9,4.62a7.33,7.33,0,0,0,6-.25c1.11-.72,1.62-3.69,1.15-5.28-1.24-4.14-4.82-3.09-7.89-2.73,2.78-1.24,5.56-2.57,4.82-6.37s-3.72-4.09-6.82-4c1-2.16,3-4.51,2.66-6.41-0.3-1.56-3.43-2.57-5.31-3.82,3.81-4.92,3.41-6.76-2.1-10.31,0.86-3.3,2.18-7-2.31-8.23-1.68-.46-5.26,1.13-5.87,2.64-1.5,3.71.43,6.32,4.87,6.62l-2.17,3.83-0.27-1.38h-7l1,9.2c-1.11,1.5-2.06,4.73,1.51,6.68,1.57,0.86,5.72.18,6.38-1,1.8-3.37,1.06-6.81-3.58-7.88l1.27-2.17c3.17,0.74,5.8,1.36,8.4,2-1.21,2.25-3.36,4.55-3.26,6.75C501.41,395.6,505.19,396.67,507.29,397.81Zm-49,.4c-2.1.78-5.23,1-6.09,2.47-1.5,2.61-.61,5.64,2.6,7.25a15.9,15.9,0,0,0-3,.11c-3.08.68-4.5,2.72-3.95,5.79,0.6,3.39,3.21,4,6,3.39,1.19-.27,3.11-1.78,3-2.47-0.36-2.39-1.47-4.66-2.3-7,2.13-1.15,5.19-1.84,6.08-3.62,0.64-1.28-1.62-4-2.6-6.1q10.6-2.05,3.7-10.15c6.72-1,8-3.68,4.62-9.57,4-.14,5.79-2.24,5-6.15-0.7-3.5-3.54-4.08-6.19-3.14-4.64,1.65-2.92,5.42-2,8.63-5.86,2.95-6.23,6.45-1.23,10.37-2.23,1-6,1.7-6.33,3.15C455.22,393.23,457.32,395.85,458.33,398.21Zm-27.85,9.53a27.46,27.46,0,0,0,2.95-.16c3.76-.6,4.67-3.53,3.44-6.2-0.73-1.59-3.76-3.1-5.64-3-3.27.23-3.92,3.24-3.17,6,0.34,1.28,1.69,2.28,2.61,3.43a15.46,15.46,0,0,0-2.95.26c-3.35.94-4,3.81-2.87,6.25,0.68,1.48,3.33,2.5,5.23,2.77,1,0.14,3.35-2,3.2-2.75C432.84,412.08,431.48,409.95,430.48,407.74Zm43.34-19.38a16.93,16.93,0,0,0-3.47-.06c-3.6.67-4.88,3.37-3.4,6.2,0.81,1.56,3.85,3,5.71,2.76,3.24-.35,4-3.17,3-6.12a12.23,12.23,0,0,0-2-2.87c2.8-.88,5.68-2.14,4.29-5.65-0.53-1.35-3.11-2.39-4.85-2.56-0.9-.09-3.08,2.43-2.83,3.11C470.91,385.09,472.56,386.66,473.82,388.36Zm44.61,10c1.23-2.24,3.34-4.48,3.36-6.73,0-1.33-3.31-2.67-5.13-4,3.29-5.36,2.9-7-2.5-10.19,1.27-3.18,2.36-6.6-1.84-8.28-2.52-1-5.57-.82-6.37,2.65-0.87,3.78.36,6.54,4.94,6.52-3.51,6.93-1.71,9.61,5.89,9.27-2.53,1.26-5.08,3.1-3.75,6,0.9,2,3.59,3.15,5.48,4.68-0.73,1.43-2.18,2.95-2,4.27,0.2,1.64,1.46,4,2.76,4.43a6.44,6.44,0,0,0,5.55-1.38c0.94-1,1-4.5.1-5.23C523.26,399.11,520.63,399,518.44,398.4Zm15.8,9.46c-0.52.62-1.45,1.22-1.5,1.87-0.15,2.13-.72,4.83.32,6.25,0.84,1.16,4,1.5,5.68.87,1.22-.46,2.6-3.41,2.17-4.63-0.61-1.72-2.75-3-4.41-4.21-0.52-.39-1.6,0-2.42,0,2.8-1.49,4.77-4,3-6.75-1.07-1.69-4.16-2.09-6.34-3.08,0.74-.61,2-1.16,2.11-1.85,0.26-2.23.88-5.11-.2-6.58-0.85-1.15-4.65-1.46-6-.52s-2.1,4.4-1.36,5.86,3.65,2,5.6,3c-0.87,2.13-2.85,4.63-2.3,6.28S532.25,406.72,534.23,407.86Zm-90.74.47a11.41,11.41,0,0,0-2.44-.35c-3.62.25-5.54,2.23-5,5.86s3.52,4,6.48,3.36c3.94-.86,4.23-4.69.74-9,0.79-.24,1.57-0.5,2.36-0.71,3.28-.9,4.42-3.55,3.1-6.06-0.85-1.62-3.8-3.13-5.69-3-3.34.24-3.92,3.38-3.07,6.07C440.49,406,442.29,407.07,443.49,408.33Zm-118.23-254c1.78-1.92,3.53-3.49,1.12-6.54s-4.93-1.7-6.68-.56c-2.82,1.83-5.07,4.6-7.38,7.13-0.32.36,0.39,1.66,0.63,2.52-2.76-2.23-5.35-4.74-8.33-6.64-4.34-2.75-7.94-1.79-10,2.16-1-.54-2.09-1-3.07-1.62-4.9-3-7.87-2.7-12.2,1.29-6.6-4.73-10.69-4.51-13.43.74-7-5.24-9.7-5.39-15-.83-7.15-4.77-11.37-4.33-12.78,1.31a28.32,28.32,0,0,0-4-3.6c-1.75-1.07-5-2.82-5.47-2.29-1.68,1.72-2.4,4.36-3.5,6.65-3.49-2-5.24.65-6.93,2.83-2,2.66.31,4.12,1.89,5.77,1.37,1.43,2.61,3,3.91,4.47-3-1.06-3.83.9-4.2,3.15-0.61,3.73.06,7.13,3.16,9.69-4.6,3.83-4.58,6.91.09,14.51-4.55,2.8-4.76,7.21-.59,12.89-4.63,5.71-4.62,7,.08,13.79-3.91,4.4-4,7.81-.31,13.56-4.16,4.85-4.21,7.32-.14,12,1.19,1.37,2.48,2.66,3.73,4-2.52,1.67-5.3,3.08-7.37,5.18-0.58.59,0.51,3.63,1.62,4.84s3.86,2,4.46,1.46c2.2-2,3.79-4.72,5.61-7.16,2.17,2.06,4.48,4,6.47,6.2,3.4,3.79,5-.92,7.53-1.39a29.49,29.49,0,0,0-1.2-5.38c-0.47-1.14-1.74-1.95-2.63-2.88,4.43-5.71,4.33-7.66-.66-14,4.75-3.56,4.89-6.53.6-13,4.48-5.92,4.46-6.89-.29-13.94,4.8-5.72,4.68-8.35-.65-14-1-1.07-2.09-2.09-3.14-3.13l4.56,2.11c4-5.76,3.62-7.79-2.44-14,3.5,0.77,4.67-1.8,4.82-4.22s-1-4.74-1.51-7.11c1.81,0.61,3.59,1.65,5.43,1.74,2.88,0.14,6.19.18,5.74-4.36,4.27,4.26,9,5.92,14.73,2.9-3.57,3.93-2.82,7.72.45,11.34,1.54,1.7,3.24,3.25,4.86,4.87l-4.48-2.61c-4.7,4.67-4.36,7.63,1.47,13.52-5,2.12-6.18,6.07-3,10.14,1.92,2.49,3.93,4.91,5.9,7.36l-4.39-3.4c-4.48,5-4.12,7.38,1.56,13-6.08.57-6.61,4.4-1.63,11.8-3.87,4.05-4,6.63-.59,10.67,1.06,1.25,2.19,2.44,3.29,3.66-2.49,2.5-5.08,4.9-7.38,7.55a3.26,3.26,0,0,0-.17,3.12c0.79,1.08,3,2.59,3.33,2.31,3.21-2.47,6.14-5.29,9.16-8,3.28,2.46,6.41,5.19,9.94,7.22,1.14,0.65,3.65-.13,4.93-1.07,0.73-.54.79-3,0.22-4.1-1-2-2.71-3.61-4.14-5.4,3.89-5.2,3.53-7.36-2.22-12.78,5.09-1.62,6.46-6.07,2.75-10.18-3.52-3.91-7.5-7.4-11.28-11.07l11.36,8.71c0.68-3.13,2-5.59,1.47-7.6-0.65-2.56-2.75-4.75-4.22-7.1,3.44,1.06,3.81-1.57,4.38-3.76,1.13-4.3-1.41-7.13-4.16-9.84,1.4-1.46,3.54-2.69,4.07-4.42,1.37-4.44-1.59-7.34-4.73-9.91,5.59-.14,6.75-5.22,3-11.74l10.33-3.2c4.84,3.12,5.76,3.25,11.52,1.24-2.42,4.77-1.37,8.9,2.47,12.39-5.31,4.91-5.2,7.56.46,14.75-4.5,1.57-5.86,6.36-2.63,10,3.08,3.45,6.41,6.68,9.63,10l-8.12-6.16c-4.42,4.49-4.36,6.35.22,12.47-4.59,3.71-4.64,6.36-.25,12-4.46,4.94-4.31,6.06,1.68,14.06-0.71,4-9.78,4.42-4.63,10.29,6,6.88,7.57-2.89,11.88-3.65,11.61,9.15,10.68,8.65,15,3.14a23.76,23.76,0,0,0-2.24-4,34.9,34.9,0,0,0-3.92-3.55c4.62-5.54,4.62-5.79-.07-12.18,4.28-4.74,4.34-7.19.27-12.06-1-1.14-2-2.23-3-3.35,1.6-.08,4.51.09,4.57-0.27,0.45-2.43,1.27-5.6.14-7.34-2.31-3.56-5.77-6.37-8.76-9.5l7.43,5.33c3.9-6,3.78-7.72-.7-13.49,4.77-5.06,4.77-7.66,0-14.12,4.87-5,4.89-8.07,0-13-1.5-1.54-3-3.05-4.55-4.58l11.34-9.53C332.94,152,329.26,152.69,325.27,154.37ZM437.54,387.65c6.87-.06,8.61-3.1,5.19-9.38,4.19,0.09,5.92-2.15,5.22-6-0.62-3.43-3.44-4.1-6.18-3.26-4.91,1.51-3.33,5.21-2.31,8.56-5.66,3.27-6.11,5.84-1.76,10.23-0.8.16-1.88,0-2.35,0.52-1.46,1.49-3.4,3.07-3.74,4.88-0.23,1.21,1.76,3.82,3.1,4.09,1.68,0.34,4.53-.55,5.37-1.87s0-3.87-.46-5.79C439.44,388.84,438.26,388.3,437.54,387.65Zm12.21,0.19c6.87-.63,8.3-3.41,4.73-9.39,3.71-.31,6.18-2,5.4-6-0.7-3.62-3.67-4.4-6.57-3.31-4.39,1.65-3,5.19-1.9,8.38-5.9,3.4-6.3,6.2-1.49,10.48-1.14.15-2.6-.09-3.33,0.54-1.35,1.14-2.93,2.7-3.15,4.26a5,5,0,0,0,2.27,4.21c1.53,0.63,4.34.53,5.38-.49C454.24,393.38,452.77,390.34,449.74,387.84ZM728.89,216.71c1.74-1.51,3.29-2.76,4.73-4.13,11.54-11,15.41-24.5,10.93-39.64-4.31-14.56-14.41-24.79-29.62-26.12-18.18-1.59-36.6-1-54.89-.53-7.79.21-14.14,7.42-14.17,14.41q-0.18,44.25,0,88.49c0.05,7.83,7.51,14.68,15.34,15,11.15,0.43,18.78-6.68,18.93-17.81,0.11-7.94,0-15.88,0-23.55,6.91-1.84,11.05.18,14.6,5.85C700.71,238.09,707.5,247,714,256s16.44,10.92,25.32,4.81c7.66-5.26,9.17-14.86,3.41-23.86C738.48,230.25,733.77,223.79,728.89,216.71ZM293.32,374.21c1.4,4.51-1.58,3.9-3.74,3.91q-18,.07-36,0c-11.2,0-11.2,0-11.19,10.92a23.87,23.87,0,0,1-.05,4.49c-1.89,9.71,2.46,16.62,9.87,22.1a8.25,8.25,0,0,0,4.38,1.85c23.64,0.13,47.28.12,70.91,0.12,1.92,0,3.84-.2,6.12-0.32,0-2.38,0-4.19,0-6,0-17,.05-34,0-51,0-7.12,2-14.89-6.34-19.94,6.3,0.45,6.66-3,6.4-7.27a82.64,82.64,0,0,1,0-11c0.52-7-1.29-12.6-7.07-17.31-3.43-2.79-6.37-4.56-10.93-4.52q-34,.33-68,0c-4.09,0-5.45,1.12-5.4,5.32,0.21,17.33.08,34.67,0.1,52,0,7.39,9.25,16.59,16.61,16.6h34.32Zm278.58,12.47c0-18.35,0-36.15.11-53.95a3.79,3.79,0,0,1,2.53-2.7c8.26-.21,16.53-0.12,25.37-0.12v13.86H630c0-9.25.12-18.06-.16-26.86,0-1-2.14-2.73-3.42-2.87a105.37,105.37,0,0,0-11.3-.14V299.69H555.65V314H541.7c-0.13,2.2-.32,4-0.33,5.79,0,8,0,16,0,24,0,17.83.12,35.66-.11,53.49-0.06,4.43,1.32,6.05,5.7,5.57a86.64,86.64,0,0,1,8.92-.06v14.08h59.39V402.83c4,0,7.54.31,10.93-.15,1.39-.19,3.59-2,3.64-3.18,0.32-8,.27-16,0-24,0-1.13-1.69-3.13-2.64-3.16-8.95-.24-17.9-0.14-27.5-0.14v14.48H571.89ZM454,264.27L397.63,145.36,340.15,264.27H454ZM664.4,323.19h5.91c12.32,0,24.65.07,37,0,8.2-.07,13.22-6,12.16-14.14-0.8-6.15-5.77-10-13.4-10-14.49-.08-29,0.38-43.46-0.21-7.3-.29-12.59,1.66-17.38,7.2-2.91,3.37-4.5,6.37-4.47,10.92,0.2,31.31.1,62.62,0.11,93.93,0,1.94,0,3.88,0,6.06,2.08,0.13,3.54.3,5,.3q30.73,0,61.45,0c7.64,0,12.18-4.2,12.32-11.27s-4.69-12-12.21-12.11c-7.83-.08-15.65,0-23.48,0H664.58V370.18c5.67,0,11,.12,16.29,0A11.75,11.75,0,0,0,692,360.5c1-5.48-1.82-11.13-7-13a28.54,28.54,0,0,0-8.29-1.28c-4.07-.2-8.16-0.05-12.4-0.05v-23ZM563,186.26L562.77,188l9,3-8.94,2.62-0.1,1.48,9.19,3-9.17,2.84,0.13,1.6,9.56,2.82-9.68,3L563,209.9l9.83,2.6-10.07,2.86V217l9.48,2.94-9.54,2.83,0.17,1.74,9.38,2.67-9.58,2.61,0.23,1.88,9.48,2.64-9.65,2.87,0.1,1.73,9.8,2.73-9.78,2.86,0,1.47,9.46,2.82-9.45,2.85-0.09,1.47,9.1,3.05L562.76,259q0,1,0,2l18.71,3.83,0.7-7.76,1.15,0.08,2.41,7.54h1.45l3-9.56,3,9.46,1.61-.22,2.83-9.44,2.88,9.55,1.5,0,3-9.15,3.07,9.18,1.57-.17,2.75-9.76,2.93,10.05,1.6-.07,2.87-9.4,3,9.43,1.51,0,3.08-9.76c0.54,2.22.86,3.85,1.33,5.43s1,2.82,1.56,4.22h1.41l3-9.51,2.84,9.61,2.39-.62-4.14-19-1.91,0-3,9.6-2.85-9.57-1.61.13-2.9,9.77-3-10-1.62.17-2.79,9.63-3.07-9.76H611.8L608.73,254l-2.93-9.25-1.57.07-2.85,9.78-3.07-9.85-1.39.06-3,9.29-3.16-9.36-1.5.16-2.78,9.83L584,246H573.86c1.37-1.34,2.84-1.52,4.24-1.94s2.88-1.1,4.31-1.66l0-1.41-8.85-3,8.82-2.82-0.1-1.68-9.3-2.65,9.3-2.87,0.06-1.59-9.61-2.91,9.61-2.79v-1.53l-9.28-2.74,9.42-3,0-1.44-8.61-2.83c7.49,1,8.94-3.62,9.44-9.28l2.84,8.65,1.61-.24,2.78-9.9,2.89,10,1.56,0.14,3.14-9.14,2.93,9.07,1.62,0,2.85-9.78,3,9.75,1.62,0.09,3-9.58,3,9.6,1.67-.17,2.81-9.57,3,9.64,1.62-.41c0.46-6.67-2-12.81-3.73-19.07l-1.58-.17-3,9.47-3.21-9.52-1.58.25-2.68,9.84-3-9.93-1.55-.14-3,9.59-3-9.59-1.62.16-2.88,10-3-10.06-1.44-.07L587,198c0.66-9.88-7-9.36-13.19-11.06l8.55-2.54,0.1-1.48-9-3,9-2.82-0.11-1.63L573,172.68l9.36-2.76,0.08-1.72-8.9-2.64,0.17-.93,6.9,1.16,2.24-9,2.9,9.42,1.44,0.06,3.09-9.36,3.05,9.47,1.61-.28,2.71-9.47,3.08,9.67,1.49-.08,2.89-9.16,3.14,9.22,1.56-.21,2.72-9.93,2.94,10.2,1.71-.16,2.7-9.37,3.18,9.55,1.7-.3,2.58-9.53,3,9.77,1.63-.12,2.84-9.56,3,9.58,1.76-.51a53.91,53.91,0,0,0-4.13-19l-1.44-.11-2.89,9.4-3-9.39-1.57.11-2.82,9.8-2.94-10-1.68.09-2.75,9.52-3.07-9.63-1.65.12-2.73,9.38-3-9.51-1.68.2-2.74,9.66-2.94-9.77-1.53,0L594,155.73l-3.21-9.22-1.68.34-2.66,10a43.44,43.44,0,0,1-1.22-5.25c-0.46-4.57-2.29-6.57-7.23-5-3.78,1.18-7.81,1.51-11.7,2.38a18.11,18.11,0,0,0-3.59,1.67l0.15,1.35,9.61,2.66-9.73,3,0.07,1.44,9.63,2.85-9.58,2.57-0.22,1.72,9.49,3L562.77,172l0.12,1.55,9.42,2.72-9.55,2.88v1.62l9.91,2.84Zm-188.18,181c0.63-3.58-.47-5.64-0.42-8.82q0.42-26.44.42-52.89c0-4.3-2.44-6.74-6.86-6.78-5.83-.06-11.66.09-17.48-0.06-2.94-.08-3.73,1.23-3.65,3.91,0.13,4.36,0,8.73,0,13.1,0,19.56-.1,39.11,0,58.67,0.09,12.26.89,24.51,0.67,36.76-0.06,3.41-.61,5.47,3.59,5.44,7.6,0,15.2,0,22.09,0a5.86,5.86,0,0,0,1-1.08c0.19-15,.4-29.91.43-44.86C374.67,369.77,375.21,367.75,374.78,367.3Zm3.15-67.54c0.21,9.86.13,14.94-.15,16.53a6.39,6.39,0,0,0,.08,2.49c0.17,0.74.56,1.93,1,2a75.51,75.51,0,0,0,9.91,1.4c3.14,0.17,6.39-.72,9.44-0.22,9.65,1.61,13.91,8.11,12.58,18.44-1,7.61-8.52,13.27-16.68,12.79-4.15-.24-8.32,0-12.48-0.07-2.56,0-4,.79-3.92,3.76,0.17,6.14,0,12.29,0,19.25,13.53,0,26.51,1.12,39-3.22a26.41,26.41,0,0,0,9.35-5.42c7.57-7.18,12.1-16,12.64-26.65,0.65-12.87-2.67-25.61-11.85-33.54-5.18-4.47-11.16-6-15.09-7.14a56.58,56.58,0,0,0-14.4-1.9A88.11,88.11,0,0,0,377.93,299.76Zm66.17-96.86c1.5,5.26,3,9.75,4,14.33,0.89,3.92,2.84,5.1,6.92,5.08,31.81-.2,63.62-0.11,95.44-0.12h7.19c-2.87-5.46-5.25-9.65-7.3-14-1.54-3.28-3.72-4.37-7.39-4.39-22.63-.14-45.27-0.62-67.9-0.89C465.13,202.8,455.18,202.9,444.11,202.9Zm45.74-4.81c16.23-11.7,31.21-22.45,46.07-33.35,0.79-.58,1.29-2.94.77-3.7-3.59-5.31-7.49-10.42-11.55-16-11.28,8.26-21.9,15.94-32.38,23.8-1.34,1-2.73,2.94-2.79,4.49C489.69,181.12,489.84,188.88,489.84,198.09Zm64.45,25.74c-8,0-15.43-.1-22.84.11-1.11,0-2.62,1.35-3.18,2.46-5.27,10.32-10.3,20.76-15.6,31.06-1.31,2.54-.93,3.88,1.52,5.12,4,2,8,4.07,11.81,6.39,3.23,2,4.78,1,6.42-2.17C539.05,253.8,546,241,552.73,228A39.58,39.58,0,0,0,554.29,223.83Zm-88,.23v39.78h21.56V224.05H466.28Zm1.47-39.89,19.83-32.31c-5.76-1.87-11-3.3-16-5.29-2.87-1.14-4.22-.23-5.64,2.05-4.9,7.87-9.91,15.68-15.36,24.25Zm20.16-28-1.15-.39c-4.2,6.7-8.08,13.62-12.68,20-4.89,6.81-6,14.21-5.09,22.17,0.13,1.13,1.36,3,2.15,3,5.57,0.27,11.15.14,16.78,0.14v-45ZM470.23,339.27c4.34-.58,6.14-3.45,4.49-7-0.69-1.49-4.71-2.82-6.45-2.17-4.26,1.58-2.42,5.24-1.37,8.5-4,.66-5.93,3-4.53,7,1.15,3.31,4.3,3.31,6.68,2.27C473,346.14,471.91,342.88,470.23,339.27Zm52.6,39.16c-2.1,3-3.4,6.26.12,8.26,1.62,0.92,5.79.29,6.75-1.08,2.77-3.95-.2-6.5-3.77-8.06,1.58-3.6,2.33-7-1.95-8.48-2.49-.87-5.46-0.6-6.27,2.94C516.76,376.12,518.65,378.22,522.83,378.42ZM495,339.37c-1.37,3.31-2.59,6.8,1.26,8.32,1.73,0.68,5.76-.57,6.48-2,1.73-3.59-.15-6.47-4.4-7.2,2-3.26,2.88-6.63-.91-8.24-1.66-.71-5.54.5-6.43,2C489,335.49,490.94,338.14,495,339.37Zm-39.92-.81c-4.07.72-6.08,3.34-4.24,7,0.75,1.48,4.37,2.86,6,2.29,4.48-1.56,2.92-5.27,1.6-8.59,4.4-.77,5.86-3.75,4.22-7.21-0.66-1.4-4.44-2.61-6.12-2C452.17,331.6,453.73,335.17,455.08,338.56Zm55.11,0c1.63-3.48,2.76-6.67-1-8.58-2.51-1.27-5.31-.95-6.62,2.22-1.75,4.24,1,6,4.28,7.28-1.13,3.28-2.58,6.92,1.82,8.32,1.69,0.54,5.39-.82,6-2.28C516.35,341.91,514.52,339.18,510.2,338.59ZM466.74,201V187.11l-17,12.59,0.79,1.27h16.25Zm3,97.76c-1.28,1.86-3.33,3.61-3.64,5.62a3.85,3.85,0,0,0,4.85,4.57,7.35,7.35,0,0,0,4.6-4.49C476.27,301.51,474.35,299.46,469.77,298.73ZM516.86,369c4.44-.63,6.52-2.58,5.95-5.47-0.35-1.78-2.73-4-4.61-4.46-3.22-.86-5.1,1.74-4.75,4.63C513.68,365.53,515.66,367.19,516.86,369ZM488.49,394l0-2.29c-1.81-1.17-3.5-3-5.45-3.35-2.84-.51-4.7,1.38-4.78,4.4-0.09,3.27,1.8,5.31,4.88,4.78C485.06,397.23,486.71,395.25,488.49,394ZM469.8,369c4.43-.71,6.62-2.56,6-5.52-0.37-1.79-2.79-4-4.67-4.43-3.16-.8-5.19,1.62-4.73,4.65C466.69,365.57,468.62,367.22,469.8,369ZM503.19,348h-2.34c-1.19,2-3.14,3.82-3.38,5.88-0.33,2.76,1.65,4.38,4.78,4.3,3.38-.09,5.23-1.91,4.64-4.95C506.51,351.38,504.48,349.78,503.19,348ZM484.24,298.8l-2.51-.1c-1.3,1.87-3.66,3.8-3.57,5.6s2.55,4.17,4.38,4.63c3.05,0.76,5.25-1.46,4.76-4.65C487,302.34,485.3,300.62,484.24,298.8Zm23.53,26.74c-0.44-4.9-2.38-5.94-5.56-5.78s-4.93,2-4.08,4.73c0.58,1.84,3.06,4.24,4.72,4.27C504.7,328.77,506.58,326.39,507.77,325.53Zm7.63,33.41c1.18-1.77,3.18-3.45,3.36-5.32,0.28-2.87-1.71-5.42-4.84-4.59a7.15,7.15,0,0,0-4.4,4.56C509,356.45,510.83,358.57,515.41,358.94Zm-27.27-23.08c0.09-5-1.89-6.43-5-6.36-2.89.06-4.49,1.42-4.43,4.66,0.07,3.41,1.91,5.21,4.87,4.72C485.53,338.57,487.17,336.54,488.14,335.85ZM499.2,304c0.26-3-1.51-4.34-4.46-4.37-3.17,0-5.49,1.61-4.71,4.77a7.29,7.29,0,0,0,4.48,4.58C497.55,309.6,499.36,307.47,499.2,304Zm-43,49.83c0-3.13-1.4-5-4.72-4.94-2.89,0-4.65,1.32-4.71,4.46-0.05,2.91,1,4.76,4.16,4.9S456.06,357.25,456.21,353.79Zm8.4,5.2c1.18-1.75,3.05-3.39,3.39-5.29,0.55-3.13-1.58-4.83-4.74-4.85-3.36,0-4.54,1.88-4.49,5.08S460.56,358.25,464.61,359ZM476.1,359c1.32-1.7,3.41-3.24,3.79-5.13,0.62-3.08-1.46-4.95-4.67-5.07s-4.6,1.72-4.62,4.63S471.62,358.41,476.1,359ZM500,364.59c-1-4.41-2.92-6.41-5.88-5.53a7.23,7.23,0,0,0-4.11,4.72c-0.67,3.28,1.84,5,4.86,4.25C496.75,367.59,498.31,365.78,500,364.59Zm-42.23,4.33c4.42-.58,6.58-2.42,6.07-5.34-0.31-1.78-2.6-4-4.43-4.55-3.14-.9-5.13,1.53-4.81,4.48C454.81,365.4,456.66,367.12,457.77,368.92Zm9.42-44.85c0.27-3-1.19-4.31-4.35-4.31s-5.53,1.33-4.8,4.53a7.2,7.2,0,0,0,4.44,4.56C465.41,329.52,467.42,327.6,467.19,324.07Zm62.87,89.87L530,411.59c-1.75-1.21-3.38-3.17-5.27-3.44-3-.44-4.87,1.59-4.85,4.8s2.17,5,5.12,4.38C526.81,417,528.37,415.11,530.06,413.93ZM467.13,309.82c-3.34-.31-5.55,1.44-5,4.5,0.34,1.81,2.68,4.07,4.53,4.55,2.72,0.71,4.58-1.1,4.55-4.33C471.23,311.65,470.6,309.55,467.13,309.82Zm30.22-.84c-1.17,1.74-3.08,3.39-3.34,5.26-0.44,3.11,1.68,4.92,4.9,4.78,3-.13,4.37-1.81,4.32-4.88S501.63,309.63,497.36,309Zm-5.71,50c1.17-1.76,3.06-3.41,3.36-5.3,0.49-3.1-1.61-4.82-4.8-4.81-3.39,0-4.51,1.94-4.44,5.12S487.56,358.32,491.64,359Zm15.83,10c1.2-1.76,3.12-3.41,3.43-5.31,0.51-3.13-1.53-4.9-4.81-4.83s-4.33,1.81-4.32,4.83S503.18,368.29,507.47,369Zm-59.1,0c1.26-1.73,3.25-3.32,3.6-5.21,0.56-3.07-1.38-5-4.7-5-3.1,0-4.5,1.59-4.49,4.68S444.06,368.23,448.37,369Zm43.25-38.36c2-3.09,4.13-4.93,3.94-6.51s-2.49-3.75-4.21-4.14c-3-.68-4.9,1.64-4.32,4.48C487.4,326.3,489.39,327.77,491.62,330.66ZM480.39,324c-3.07-2-4.84-4.13-6.22-3.9a6.4,6.4,0,0,0-4.17,4c-0.74,2.92,1.47,4.86,4.29,4.39C476,328.22,477.42,326.29,480.39,324Zm-2.26-9.54L478,316.59c1.55,1.19,3.23,3.46,4.61,3.29,1.65-.2,4.14-2.44,4.22-3.91s-2.18-4-3.79-4.32C481.7,311.34,479.8,313.43,478.13,314.46Zm9.68,34.91c2-2.58,4.14-4.11,4-5.5s-2.31-3.72-3.67-3.78-3.77,2-4,3.45S486,346.62,487.82,349.37Zm-5,32.87c2.13-2.82,4.26-4.42,4.09-5.72-0.21-1.54-2.35-3.86-3.73-3.92s-3.63,2.15-3.95,3.68C478.93,377.56,480.92,379.3,482.8,382.24ZM479,339.18l-1.91.1c-0.91,1.62-2.79,3.46-2.48,4.8s2.59,3.13,4.21,3.37c0.9,0.14,3.12-2.44,3.11-3.78C481.91,342.17,480,340.68,479,339.18Zm8.42-14.37c-2.25-1.35-3.64-2.84-4.72-2.64s-2.4,2-2.63,3.24c-0.12.68,1.87,2.48,2.84,2.42C484.13,327.76,485.28,326.33,487.41,324.81Zm-4,63.82c1.34-2.14,2.69-3.34,2.62-4.45s-1.71-1.86-2.65-2.79c-1,1.06-2.46,2-2.79,3.23C480.32,385.38,481.86,386.61,483.36,388.63Zm-7.87-9.85c1.22-2,2.46-3.12,2.42-4.2,0-.85-1.65-1.64-2.57-2.46-0.83,1-2.11,2-2.34,3.11C472.84,376,474.2,377.05,475.49,378.79Z" transform="translate(-154 -104)"/><path d="M680.42,167.79l-0.49-10.27c12.18,0.78,24.4.29,36,2.69,10.48,2.17,16.94,10.53,17.66,21.63,0.65,9.91-3.28,18.1-12.34,24.08l-5.49-7.22c7.67-5,10.45-11.75,7.41-20.27-2.53-7.08-7.67-10.58-15.16-10.62C698.92,167.75,689.81,167.79,680.42,167.79Z" transform="translate(-154 -104)"/><path d="M706.07,223c7.47-2.4,12.22-.4,15.74,6,3,5.34,6.93,10.13,10.44,15.17,1.61,2.31,2.07,4.6-.51,6.51-2.79,2.06-5.07.76-6.79-1.58C718.66,240.45,712.48,231.82,706.07,223Z" transform="translate(-154 -104)"/><path d="M658.26,222.44h8.89c0,5.31,0,10.69,0,16.07,0,2.82.48,5.77-.21,8.42-0.47,1.81-2.58,3.2-4,4.78-1.57-1.43-4.42-2.8-4.5-4.31C658,239.17,658.26,230.91,658.26,222.44Z" transform="translate(-154 -104)"/><path d="M680.4,187.78v-7.5c9.28,0,18.52-.15,27.74.18,1.23,0,2.38,2.54,3.57,3.9-1.63,1.14-3.22,3.2-4.89,3.26C698.22,188,689.6,187.78,680.4,187.78Z" transform="translate(-154 -104)"/><path d="M708.21,209.77c-4.13,0-6.91.49-9.38-.17a7.1,7.1,0,0,1-4.22-3.94c-0.4-1.11,1-3.76,2.25-4.33a5.74,5.74,0,0,1,5.05.84C704.1,204,705.67,206.6,708.21,209.77Z" transform="translate(-154 -104)"/><path d="M666.82,210.77c-3.11-1.37-5.67-2.08-7.64-3.57-0.76-.58-0.82-3.77-0.11-4.3,2-1.51,4.63-2.26,7.75-3.64v11.5Z" transform="translate(-154 -104)"/><path d="M666.84,167.41c-5.79.54-9.09-1.08-8.4-4.38,0.37-1.8,3.24-4.57,4.65-4.38C668.18,159.32,667.14,163.53,666.84,167.41Z" transform="translate(-154 -104)"/><path d="M666.76,180.53c0.14,1.43.34,2.56,0.34,3.69a28.64,28.64,0,0,1-.37,3.24h-8.19v-6.93h8.22Z" transform="translate(-154 -104)"/><path d="M252.13,406.19h21.63c12.46,0,25,.61,37.37-0.21,8.24-.55,13.56,2.54,18,9.52-1.53.12-2.86,0.3-4.18,0.3q-27.17,0-54.33,0C259.83,415.81,259.83,415.81,252.13,406.19Z" transform="translate(-154 -104)"/><path d="M322.19,339.5c6.94,4.72,10.21,9.77,9.84,18.12-0.81,18.39-.25,36.84-0.25,56.68-4.89-5.46-10.14-8.33-9.83-16.38C322.69,378.7,322.19,359.43,322.19,339.5Z" transform="translate(-154 -104)"/><path d="M293.59,363.56v8.6H276.65c-4,0-8-.45-12,0.09-7.81,1.09-13.5-1.7-17.7-8.69h46.59Z" transform="translate(-154 -104)"/><path d="M329.91,337.92c-2.49-.23-4.65.23-5.45-0.61-3.15-3.31-7-2.45-10.73-2.48-9.8-.06-19.61,0-29.41,0-6.89,0-6.89,0-11.75-6.61h18.6c7,0,14.06.76,20.91-.19C320.53,326.83,324.75,331.71,329.91,337.92Z" transform="translate(-154 -104)"/><path d="M322.67,311c11,5.23,9.51,14.72,8.86,24.13C322.36,329.44,320.63,324.63,322.67,311Z" transform="translate(-154 -104)"/><path d="M269.33,394.55h46.93v0.79H269.42Z" transform="translate(-154 -104)"/><path d="M313.22,401.13c-19,0-37.94,0-56.92,0-2.63,0-3.54-1.16-3.46-3.63,0.09-2.63,0-5.27.89-7.93V400h59.68Z" transform="translate(-154 -104)"/><path d="M311.43,345.16v30.62l-0.74,0V345.08Z" transform="translate(-154 -104)"/><path d="M267.86,389.25h46.25v0.35h-46Z" transform="translate(-154 -104)"/><path d="M247.74,308.82v42.35h-0.32V308.75Z" transform="translate(-154 -104)"/><path d="M253.61,308.64v40.72h-0.47V308.64h0.47Z" transform="translate(-154 -104)"/><path d="M259.56,308.71v40.54h-0.39V308.71h0.39Z" transform="translate(-154 -104)"/><path d="M316.34,380.05V343.71h0.36v36.51Z" transform="translate(-154 -104)"/><path d="M319.36,306H284.92v-0.64h34.44V306Z" transform="translate(-154 -104)"/><path d="M296.33,383.69H261.84v-0.31h34.49v0.31Z" transform="translate(-154 -104)"/><path d="M264.35,348.25V323.63h0.5V348.3Z" transform="translate(-154 -104)"/><path d="M293.29,346.42h-12v-0.8h12Z" transform="translate(-154 -104)"/><path d="M315.2,323H293.83v-0.48h21.6Z" transform="translate(-154 -104)"/><path d="M353.56,256.13l43.51-91.37c5.07,6.54,5.24,8.21,2,15-11.14,23.39-22.42,46.71-33.24,70.25C363.3,255.54,360.5,258.52,353.56,256.13Z" transform="translate(-154 -104)"/><path d="M406.26,184c3.79,4.54,4,8.71,1.44,13.89q-13,26.39-25.11,53.21c-2.28,5.06-5.11,6.9-11,5.11Z" transform="translate(-154 -104)"/><path d="M388.95,256.1l25.57-54c3.76,4.29,5.25,8,2.38,13.48-6,11.47-11.49,23.24-16.73,35.09C398,255.65,395.35,258.42,388.95,256.1Z" transform="translate(-154 -104)"/><path d="M406.37,256.17l17.13-35.82c3.08,3.93,4.76,7.42,2.26,12.14a160.82,160.82,0,0,0-8.37,18C415.44,255.62,412.8,258.35,406.37,256.17Z" transform="translate(-154 -104)"/><path d="M432.22,237.67l9.37,18.77h-18Z" transform="translate(-154 -104)"/><path d="M660.16,350.72c8.89,0.46,17.44.88,26,1.41,0.24,0,.42,1.07.95,2.5H660.16v44.59H714.5c-2.78,3.24-44.34,4.23-58,2.48V304.75c12.58-2.07,55.52-.85,58.6,2.54h-55v43.43Z" transform="translate(-154 -104)"/><path d="M644.85,411.44c0-22.1,0-43,0-64q0-14.72,0-29.45c0-6.4.36-7,7-11.06,0,2.05,0,3.82,0,5.58,0,28.61-.2,57.23.16,85.84C652.13,404.18,649.61,407.52,644.85,411.44Z" transform="translate(-154 -104)"/></svg>